Jump_normalized_Motion_pl10
version=1
nRows=23
nColumns=43
inDegrees=yes
endheader
time		pelvis_tilt		pelvis_list		pelvis_rotation		pelvis_tx		pelvis_ty		pelvis_tz		hip_flexion_r		hip_adduction_r		hip_rotation_r		knee_angle_r		ankle_angle_r		subtalar_angle_r		mtp_angle_r		hip_flexion_l		hip_adduction_l		hip_rotation_l		knee_angle_l		ankle_angle_l		subtalar_angle_l		mtp_angle_l		lumbar_extension		lumbar_bending		lumbar_rotation		neck_flexion		neck_lateral_bending		neck_rotation		arm_flex_r		arm_add_r		arm_rot_r		elbow_flex_r		pro_sup_r		wrist_flex_r		wrist_dev_r		hand_finger_flex_r		arm_flex_l		arm_add_l		arm_rot_l		elbow_flex_l		pro_sup_l		wrist_flex_l		wrist_dev_l		hand_finger_flex_l		
0.002500		0.682370		-4.779702		86.480235		0.071072		1.748148		1.820534		76.650393		-2.175542		3.762816		-152.508623		23.064374		11.651267		19.094856		73.812897		-7.410993		12.420012		-151.973912		20.422454		21.627135		28.393660		-52.533034		-3.532746		2.339401		33.058651		1.864405		-3.772861		42.649065		-23.193521		-6.781590		78.907341		92.034604		2.012086		-1.524429		-10.333748		58.839063		-22.651343		9.875343		50.089349		112.263703		-16.098437		-5.429146		18.403793		
0.004293		0.720780		-5.036710		86.487817		0.070905		1.747831		1.819223		76.743056		-2.192806		3.705985		-152.492084		22.945532		11.551204		19.096423		73.875569		-7.378184		12.370685		-151.974743		20.447008		21.373143		28.482958		-52.219887		-3.466403		2.373207		32.954885		1.980388		-3.509943		43.405687		-23.384264		-6.502753		78.953051		92.395407		2.222263		-1.569229		-10.354244		59.564957		-22.715053		10.351192		49.963121		112.206729		-16.039264		-5.339685		18.469036		
0.006086		0.743163		-5.292982		86.489847		0.070765		1.747600		1.817881		76.814699		-2.211463		3.668438		-152.465969		22.908696		11.490947		19.104578		73.918996		-7.359881		12.329369		-151.962256		20.465069		21.228009		28.542625		-51.939523		-3.411844		2.391430		33.039296		2.043853		-3.417815		44.181217		-23.523580		-6.264986		79.016250		92.620540		2.359928		-1.576581		-10.369927		60.241558		-22.749780		10.677387		49.916239		112.195272		-16.022047		-5.273573		18.489725		
0.007879		0.762231		-5.549601		86.493474		0.070636		1.747409		1.816518		76.867789		-2.229902		3.632844		-152.432719		22.926437		11.449369		19.120756		73.953953		-7.344143		12.295361		-151.941455		20.485681		21.127623		28.595274		-51.673776		-3.354942		2.401949		33.192455		2.065188		-3.424085		44.971330		-23.650564		-6.022656		79.095157		92.777981		2.453010		-1.549949		-10.395303		60.894700		-22.803530		10.996781		49.929397		112.220265		-16.047735		-5.206656		18.471996		
0.009672		0.807883		-5.809307		86.516569		0.070479		1.747160		1.815155		76.902706		-2.244149		3.557664		-152.396110		22.948573		11.380762		19.150868		74.004067		-7.302718		12.269169		-151.921994		20.531605		20.929663		28.693758		-51.382905		-3.260651		2.421594		33.144812		2.056911		-3.382516		45.769922		-23.856519		-5.663440		79.190190		93.012521		2.555924		-1.487482		-10.468567		61.580090		-22.998762		11.654589		49.973818		112.270683		-16.131606		-5.079968		18.419150		
0.011465		0.831028		-6.068073		86.514676		0.070358		1.746999		1.813737		76.937071		-2.252608		3.523879		-152.350307		22.962083		11.354614		19.168117		74.023402		-7.295054		12.240109		-151.894732		20.551028		20.854946		28.742457		-51.114712		-3.204153		2.444373		33.306709		2.092393		-3.377978		46.572931		-23.967193		-5.424058		79.266351		93.119204		2.609102		-1.449777		-10.505368		62.242818		-23.023606		11.952239		49.977858		112.295817		-16.178112		-4.983086		18.376862		
0.013258		0.880307		-6.312483		86.525165		0.070260		1.746869		1.812306		76.935955		-2.250340		3.448168		-152.296667		22.977483		11.310245		19.216408		74.031946		-7.293629		12.235173		-151.866507		20.560159		20.728973		28.859097		-50.856322		-3.122922		2.469605		33.415874		2.124395		-3.346184		47.391803		-24.067739		-5.137342		79.338398		93.201717		2.585495		-1.398091		-10.650790		62.942373		-23.138133		12.506857		50.000595		112.210411		-16.415078		-4.753851		18.231588		
0.015051		0.970058		-6.538722		86.558508		0.070182		1.746754		1.810873		76.888439		-2.235666		3.306641		-152.235267		22.998674		11.230031		19.309009		74.034825		-7.291088		12.261904		-151.839132		20.564270		20.501843		29.078534		-50.603630		-2.998691		2.497991		33.394423		2.138905		-3.268577		48.230320		-24.184861		-4.752875		79.410894		93.289005		2.477744		-1.320806		-10.947306		63.695822		-23.418258		13.499824		50.060383		111.988517		-16.908293		-4.344613		17.950392		
0.016843		0.985992		-6.804996		86.532427		0.070011		1.746609		1.809365		76.907221		-2.237601		3.308718		-152.178470		23.039460		11.221072		19.330730		74.025740		-7.312682		12.213445		-151.804034		20.600446		20.503937		29.114931		-50.324908		-2.956612		2.552669		33.567474		2.176507		-3.286930		49.045264		-24.344448		-4.494168		79.493353		93.329468		2.561863		-1.281219		-10.949726		64.332738		-23.382291		13.693521		50.090116		112.002543		-16.867022		-4.280771		17.947263		
0.018636		1.034524		-7.055480		86.515443		0.069910		1.746452		1.807856		76.882975		-2.201667		3.263576		-152.118881		23.108048		11.226461		19.375629		74.014349		-7.351388		12.196772		-151.775770		20.656274		20.461485		29.179858		-50.045068		-2.887811		2.612387		33.596564		2.182523		-3.273621		49.873782		-24.505929		-4.157949		79.574355		93.357898		2.604906		-1.207846		-11.003172		65.009281		-23.457339		14.124324		50.132764		112.042378		-16.846566		-4.116136		17.917822		
0.020429		1.113048		-7.289262		86.508309		0.069842		1.746335		1.806331		76.818508		-2.149050		3.177240		-152.049152		23.181574		11.237424		19.457303		73.989203		-7.403549		12.214343		-151.746103		20.703722		20.391670		29.292995		-49.777484		-2.792699		2.676630		33.575357		2.179448		-3.231200		50.718033		-24.633596		-3.796165		79.640982		93.339190		2.579686		-1.113288		-11.139831		65.710712		-23.606845		14.739276		50.197119		112.007257		-16.939604		-3.822617		17.821151		
0.022222		1.227017		-7.498966		86.515769		0.069751		1.746364		1.804756		76.705251		-2.112938		3.046717		-151.952342		23.219762		11.239764		19.613257		73.924601		-7.467047		12.282353		-151.699434		20.688482		20.316688		29.506912		-49.550878		-2.663056		2.745996		33.658593		2.205469		-3.154418		51.587350		-24.650375		-3.495426		79.664617		93.192839		2.413017		-1.013439		-11.447164		66.418474		-23.789119		15.504011		50.306727		111.686669		-17.354949		-3.304682		17.559218		
0.024015		1.273413		-7.762044		86.492303		0.069613		1.746246		1.803164		76.671679		-2.081292		3.010769		-151.878421		23.286711		11.237747		19.684694		73.904375		-7.515942		12.253217		-151.657882		20.728730		20.291094		29.594065		-49.258535		-2.595693		2.811290		33.732784		2.229470		-3.146222		52.419289		-24.761538		-3.205593		79.721896		93.198897		2.471859		-0.942122		-11.512158		67.068383		-23.823279		15.863939		50.346384		111.629647		-17.380201		-3.147945		17.509474		
0.025808		1.310984		-8.036484		86.464690		0.069458		1.746139		1.801547		76.651144		-2.061661		2.991599		-151.801479		23.344383		11.242259		19.729581		73.884837		-7.559204		12.212928		-151.608838		20.763119		20.272390		29.642770		-48.955077		-2.536847		2.878555		33.840895		2.258142		-3.147511		53.239010		-24.824636		-2.986375		79.765972		93.230937		2.536454		-0.885253		-11.534702		67.695645		-23.803931		16.098062		50.363383		111.636954		-17.346589		-3.057572		17.493019		
0.027601		1.356852		-8.310975		86.439284		0.069296		1.746076		1.799903		76.625103		-2.051963		2.966927		-151.715597		23.387936		11.257400		19.765172		73.855578		-7.601321		12.184254		-151.551246		20.779328		20.245741		29.676737		-48.653308		-2.471017		2.950575		33.978789		2.289995		-3.140391		54.055432		-24.813495		-2.838645		79.785499		93.263190		2.560285		-0.834163		-11.562684		68.311705		-23.764612		16.293453		50.371131		111.665419		-17.330273		-2.959704		17.465626		
0.029394		1.468948		-8.554115		86.419769		0.069194		1.745966		1.798264		76.538944		-1.980086		2.861576		-151.627280		23.492055		11.300992		19.870780		73.815600		-7.684631		12.214253		-151.522597		20.818321		20.130186		29.774236		-48.360712		-2.347409		3.046768		33.889259		2.272183		-3.055487		54.926156		-24.893288		-2.487616		79.789296		93.339005		2.627841		-0.691678		-11.641323		68.985881		-23.928774		16.893270		50.424687		111.721485		-17.345355		-2.733339		17.369588		
0.031187		1.568130		-8.803531		86.404110		0.069051		1.745920		1.796596		76.460727		-1.932912		2.767900		-151.531833		23.556201		11.322248		19.983168		73.775297		-7.741927		12.233284		-151.477500		20.831451		20.036787		29.881520		-48.076028		-2.230757		3.133223		33.902273		2.274734		-2.983007		55.784080		-24.931752		-2.206298		79.792059		93.413897		2.687603		-0.581756		-11.730633		69.630924		-24.036277		17.377135		50.472967		111.714925		-17.414115		-2.555192		17.236400		
0.032980		1.654236		-9.059760		86.388948		0.068902		1.745903		1.794905		76.392608		-1.896033		2.685438		-151.434735		23.595350		11.328857		20.092289		73.736395		-7.783416		12.242360		-151.422778		20.831361		19.959456		29.987373		-47.791633		-2.124682		3.209718		33.972180		2.288775		-2.923571		56.625999		-24.946029		-1.962802		79.801738		93.491493		2.747081		-0.497298		-11.815930		70.259069		-24.104666		17.769740		50.507136		111.690620		-17.490871		-2.428123		17.094042		
0.034773		1.722601		-9.325860		86.369761		0.068797		1.745876		1.793189		76.341027		-1.852805		2.617353		-151.343085		23.621943		11.326590		20.182996		73.701787		-7.818003		12.239520		-151.364703		20.831236		19.895137		30.075631		-47.496971		-2.037830		3.272566		34.054486		2.305806		-2.882472		57.441999		-24.951870		-1.725395		79.831789		93.577780		2.816677		-0.437023		-11.875337		70.881679		-24.145192		18.074629		50.510058		111.705270		-17.514493		-2.373456		16.978511		
0.036566		1.807633		-9.591291		86.343225		0.068654		1.745874		1.791435		76.284063		-1.812050		2.537064		-151.240478		23.640644		11.314839		20.288322		73.651577		-7.851933		12.242866		-151.302180		20.816803		19.814139		30.178798		-47.196586		-1.937514		3.368882		34.103083		2.308394		-2.819841		58.271476		-24.979371		-1.464503		79.823024		93.696685		2.876534		-0.371537		-11.948546		71.493991		-24.196888		18.437718		50.518429		111.772107		-17.523836		-2.366296		16.833887		
0.038359		1.874514		-9.863718		86.311595		0.068498		1.745895		1.789655		76.240231		-1.781417		2.480514		-151.138271		23.647962		11.303910		20.362899		73.601458		-7.870916		12.229773		-151.229552		20.797203		19.760623		30.252212		-46.893843		-1.856525		3.459418		34.202685		2.329595		-2.779839		59.076227		-24.983839		-1.253515		79.822029		93.794299		2.917549		-0.326666		-12.000967		72.085317		-24.193913		18.687737		50.523019		111.840690		-17.522412		-2.368873		16.725148		
0.040152		1.920290		-10.143489		86.274403		0.068338		1.745933		1.787854		76.211074		-1.758125		2.450120		-151.038206		23.644690		11.294679		20.402944		73.553934		-7.875798		12.198918		-151.147534		20.773252		19.737677		30.292080		-46.588739		-1.797856		3.539805		34.356516		2.371260		-2.765422		59.855985		-24.967464		-1.086098		79.833866		93.868222		2.942008		-0.302640		-12.028592		72.657590		-24.135351		18.817371		50.521180		111.910572		-17.508126		-2.376572		16.658744		
0.041944		1.979943		-10.419173		86.224442		0.068216		1.745945		1.786048		76.176870		-1.699259		2.402317		-150.937893		23.647391		11.277912		20.456414		73.506749		-7.903003		12.180039		-151.075324		20.738588		19.693374		30.344834		-46.276086		-1.730112		3.635666		34.438834		2.390486		-2.724546		60.679522		-25.033879		-0.762185		79.826679		93.992297		2.992590		-0.252458		-12.056276		73.253228		-24.138244		19.075447		50.503600		112.063236		-17.457015		-2.406271		16.578120		
